# xmcd CD database file
#
# Track frame offsets:
#	225
#	13643
#	26897
#	40038
#	54178
#	73873
#	89711
#	95917
#	129377
#	179730
#	190724
#	202472
#	209488
#	221987
#	243104
#	252192
#
# Disc length: 3578 seconds
#
# Revision: 0
# Processed by: cddbd v1.5.2PL0 Copyright (c) Steve Scherf et al.
# Submitted via: CDex 1.70beta2
#
DISCID=fb0df710
DTITLE=Johnny Raducanu - Confesiuni I and II
DYEAR=2006
DGENRE=Jazz
TTITLE0=Omagiu lui Duke Ellington
TTITLE1=Reminiscente
TTITLE2=Doinind
TTITLE3=Vechi tezaur
TTITLE4=Confesiuni
TTITLE5=Pasari albe
TTITLE6=Dans in  5 4
TTITLE7=Spatii romanesti
TTITLE8=Ecouri din Carpati
TTITLE9=Gay
TTITLE10=In Memoriam
TTITLE11=Mountain train
TTITLE12=Dedication to Antonio
TTITLE13=Serpentines
TTITLE14=Steps on the snow
TTITLE15=After the rain
EXTD=YEAR: 2006
EXTT0=
EXTT1=
EXTT2=
EXTT3=
EXTT4=
EXTT5=
EXTT6=
EXTT7=
EXTT8=
EXTT9=
EXTT10=
EXTT11=
EXTT12=
EXTT13=
EXTT14=
EXTT15=
PLAYORDER=
